<svg width="41" height="40" viewBox="0 0 41 40" fill="none" xmlns="http://www.w3.org/2000/svg">
<g clip-path="url(#clip0_794_17521)">
<circle cx="20" cy="20" r="20" fill="#A78C2D"/>
<path d="M20.7292 14.6429C21.125 14.3929 21.3889 13.9393 21.3889 13.4286C21.3889 12.6393 20.7674 12 20 12C19.2326 12 18.6111 12.6393 18.6111 13.4286C18.6111 13.9429 18.875 14.3929 19.2708 14.6429L17.2813 18.7357C16.9653 19.3857 16.1458 19.5714 15.5938 19.1179L12.5 16.5714C12.6736 16.3321 12.7778 16.0357 12.7778 15.7143C12.7778 14.925 12.1563 14.2857 11.3889 14.2857C10.6215 14.2857 10 14.925 10 15.7143C10 16.5036 10.6215 17.1429 11.3889 17.1429C11.3958 17.1429 11.4063 17.1429 11.4132 17.1429L13 26.1214C13.191 27.2071 14.1111 28 15.1875 28H24.8125C25.8854 28 26.8056 27.2107 27 26.1214L28.5868 17.1429C28.5938 17.1429 28.6042 17.1429 28.6111 17.1429C29.3785 17.1429 30 16.5036 30 15.7143C30 14.925 29.3785 14.2857 28.6111 14.2857C27.8438 14.2857 27.2222 14.925 27.2222 15.7143C27.2222 16.0357 27.3264 16.3321 27.5 16.5714L24.4063 19.1179C23.8542 19.5714 23.0347 19.3857 22.7188 18.7357L20.7292 14.6429Z" fill="white"/>
</g>
<defs>
<clipPath id="clip0_794_17521">
<rect width="40" height="40" fill="white" transform="translate(0.5)"/>
</clipPath>
</defs>
</svg>
